<mxfile host="app.diagrams.net" modified="2023-05-09T18:55:16.759Z" agent="Mozilla/5.0 (Windows NT 10.0; Win64; x64) AppleWebKit/537.36 (KHTML, like Gecko) Chrome/112.0.0.0 Safari/537.36" etag="tMf4wILHb_7BQYORR4a2" version="21.2.2" type="google">
  <diagram name="Copy of Page-1" id="BDbaHAVZFYecM28tB-B-">
    <mxGraphModel grid="1" page="1" gridSize="10" guides="1" tooltips="1" connect="1" arrows="1" fold="1" pageScale="1" pageWidth="827" pageHeight="1169" math="0" shadow="0">
      <root>
        <mxCell id="VebKBcN3mnJs3e3qyf47-0" />
        <mxCell id="VebKBcN3mnJs3e3qyf47-1" parent="VebKBcN3mnJs3e3qyf47-0" />
        <mxCell id="VebKBcN3mnJs3e3qyf47-2" value="BankManager" style="swimlane;fontStyle=0;align=center;verticalAlign=top;childLayout=stackLayout;horizontal=1;startSize=26;horizontalStack=0;resizeParent=1;resizeLast=0;collapsible=1;marginBottom=0;rounded=0;shadow=0;strokeWidth=1;" parent="VebKBcN3mnJs3e3qyf47-1" vertex="1">
          <mxGeometry x="-250" y="70" width="160" height="172" as="geometry">
            <mxRectangle x="230" y="140" width="160" height="26" as="alternateBounds" />
          </mxGeometry>
        </mxCell>
        <mxCell id="VebKBcN3mnJs3e3qyf47-3" value="&lt;u&gt;+ List&amp;lt;Card&amp;gt; Cards&lt;/u&gt;" style="text;strokeColor=none;fillColor=none;align=left;verticalAlign=middle;spacingLeft=4;spacingRight=4;overflow=hidden;points=[[0,0.5],[1,0.5]];portConstraint=eastwest;rotatable=0;whiteSpace=wrap;html=1;" parent="VebKBcN3mnJs3e3qyf47-2" vertex="1">
          <mxGeometry y="26" width="160" height="30" as="geometry" />
        </mxCell>
        <mxCell id="VebKBcN3mnJs3e3qyf47-4" value="&lt;u&gt;+ List&amp;lt;Account&amp;gt; Accounts&lt;/u&gt;" style="text;strokeColor=none;fillColor=none;align=left;verticalAlign=middle;spacingLeft=4;spacingRight=4;overflow=hidden;points=[[0,0.5],[1,0.5]];portConstraint=eastwest;rotatable=0;whiteSpace=wrap;html=1;" parent="VebKBcN3mnJs3e3qyf47-2" vertex="1">
          <mxGeometry y="56" width="160" height="30" as="geometry" />
        </mxCell>
        <mxCell id="VebKBcN3mnJs3e3qyf47-5" value="" style="line;html=1;strokeWidth=1;align=left;verticalAlign=middle;spacingTop=-1;spacingLeft=3;spacingRight=3;rotatable=0;labelPosition=right;points=[];portConstraint=eastwest;" parent="VebKBcN3mnJs3e3qyf47-2" vertex="1">
          <mxGeometry y="86" width="160" height="8" as="geometry" />
        </mxCell>
        <mxCell id="VebKBcN3mnJs3e3qyf47-6" value="+ BankManager()" style="text;strokeColor=none;fillColor=none;align=left;verticalAlign=middle;spacingLeft=4;spacingRight=4;overflow=hidden;points=[[0,0.5],[1,0.5]];portConstraint=eastwest;rotatable=0;whiteSpace=wrap;html=1;" parent="VebKBcN3mnJs3e3qyf47-2" vertex="1">
          <mxGeometry y="94" width="160" height="26" as="geometry" />
        </mxCell>
        <mxCell id="VebKBcN3mnJs3e3qyf47-7" value="+ List&amp;lt;Card&amp;gt; GetCards" style="text;strokeColor=none;fillColor=none;align=left;verticalAlign=middle;spacingLeft=4;spacingRight=4;overflow=hidden;points=[[0,0.5],[1,0.5]];portConstraint=eastwest;rotatable=0;whiteSpace=wrap;html=1;" parent="VebKBcN3mnJs3e3qyf47-2" vertex="1">
          <mxGeometry y="120" width="160" height="26" as="geometry" />
        </mxCell>
        <mxCell id="VebKBcN3mnJs3e3qyf47-8" value="- UseAllCards()" style="text;strokeColor=none;fillColor=none;align=left;verticalAlign=middle;spacingLeft=4;spacingRight=4;overflow=hidden;points=[[0,0.5],[1,0.5]];portConstraint=eastwest;rotatable=0;whiteSpace=wrap;html=1;" parent="VebKBcN3mnJs3e3qyf47-2" vertex="1">
          <mxGeometry y="146" width="160" height="26" as="geometry" />
        </mxCell>
        <mxCell id="VebKBcN3mnJs3e3qyf47-9" value="&lt;&lt;abstract&gt;&gt;&#xa;Card" style="swimlane;fontStyle=0;align=center;verticalAlign=top;childLayout=stackLayout;horizontal=1;startSize=40;horizontalStack=0;resizeParent=1;resizeLast=0;collapsible=1;marginBottom=0;rounded=0;shadow=0;strokeWidth=1;" parent="VebKBcN3mnJs3e3qyf47-1" vertex="1">
          <mxGeometry x="310" y="250" width="290" height="282" as="geometry">
            <mxRectangle x="230" y="140" width="160" height="26" as="alternateBounds" />
          </mxGeometry>
        </mxCell>
        <mxCell id="VebKBcN3mnJs3e3qyf47-10" value="+ string Name {+get - set}" style="text;align=left;verticalAlign=top;spacingLeft=4;spacingRight=4;overflow=hidden;rotatable=0;points=[[0,0.5],[1,0.5]];portConstraint=eastwest;" parent="VebKBcN3mnJs3e3qyf47-9" vertex="1">
          <mxGeometry y="40" width="290" height="26" as="geometry" />
        </mxCell>
        <mxCell id="VebKBcN3mnJs3e3qyf47-11" value="+ string AccountNumber {+get -set}" style="text;align=left;verticalAlign=top;spacingLeft=4;spacingRight=4;overflow=hidden;rotatable=0;points=[[0,0.5],[1,0.5]];portConstraint=eastwest;rounded=0;shadow=0;html=0;" parent="VebKBcN3mnJs3e3qyf47-9" vertex="1">
          <mxGeometry y="66" width="290" height="26" as="geometry" />
        </mxCell>
        <mxCell id="b7ZgIeELEThNz4QEUEBs-79" value="+ string CardNumber {+get -set}" style="text;align=left;verticalAlign=top;spacingLeft=4;spacingRight=4;overflow=hidden;rotatable=0;points=[[0,0.5],[1,0.5]];portConstraint=eastwest;rounded=0;shadow=0;html=0;" vertex="1" parent="VebKBcN3mnJs3e3qyf47-9">
          <mxGeometry y="92" width="290" height="26" as="geometry" />
        </mxCell>
        <mxCell id="b7ZgIeELEThNz4QEUEBs-80" value="+ int MinAge {+get -set}" style="text;align=left;verticalAlign=top;spacingLeft=4;spacingRight=4;overflow=hidden;rotatable=0;points=[[0,0.5],[1,0.5]];portConstraint=eastwest;rounded=0;shadow=0;html=0;" vertex="1" parent="VebKBcN3mnJs3e3qyf47-9">
          <mxGeometry y="118" width="290" height="26" as="geometry" />
        </mxCell>
        <mxCell id="VebKBcN3mnJs3e3qyf47-12" value="" style="line;html=1;strokeWidth=1;align=left;verticalAlign=middle;spacingTop=-1;spacingLeft=3;spacingRight=3;rotatable=0;labelPosition=right;points=[];portConstraint=eastwest;" parent="VebKBcN3mnJs3e3qyf47-9" vertex="1">
          <mxGeometry y="144" width="290" height="8" as="geometry" />
        </mxCell>
        <mxCell id="VebKBcN3mnJs3e3qyf47-13" value="# Card(string name)" style="text;align=left;verticalAlign=top;spacingLeft=4;spacingRight=4;overflow=hidden;rotatable=0;points=[[0,0.5],[1,0.5]];portConstraint=eastwest;rounded=0;shadow=0;html=0;" parent="VebKBcN3mnJs3e3qyf47-9" vertex="1">
          <mxGeometry y="152" width="290" height="26" as="geometry" />
        </mxCell>
        <mxCell id="b7ZgIeELEThNz4QEUEBs-74" value="+ virtual string CreateCardNumber(string[] prefixes)" style="text;align=left;verticalAlign=top;spacingLeft=4;spacingRight=4;overflow=hidden;rotatable=0;points=[[0,0.5],[1,0.5]];portConstraint=eastwest;rounded=0;shadow=0;html=0;" vertex="1" parent="VebKBcN3mnJs3e3qyf47-9">
          <mxGeometry y="178" width="290" height="26" as="geometry" />
        </mxCell>
        <mxCell id="b7ZgIeELEThNz4QEUEBs-72" value="+ virtual Pay(int amount)" style="text;align=left;verticalAlign=top;spacingLeft=4;spacingRight=4;overflow=hidden;rotatable=0;points=[[0,0.5],[1,0.5]];portConstraint=eastwest;rounded=0;shadow=0;html=0;" vertex="1" parent="VebKBcN3mnJs3e3qyf47-9">
          <mxGeometry y="204" width="290" height="26" as="geometry" />
        </mxCell>
        <mxCell id="b7ZgIeELEThNz4QEUEBs-73" value="+ virtual Withdraw(int amount)" style="text;align=left;verticalAlign=top;spacingLeft=4;spacingRight=4;overflow=hidden;rotatable=0;points=[[0,0.5],[1,0.5]];portConstraint=eastwest;rounded=0;shadow=0;html=0;" vertex="1" parent="VebKBcN3mnJs3e3qyf47-9">
          <mxGeometry y="230" width="290" height="26" as="geometry" />
        </mxCell>
        <mxCell id="b7ZgIeELEThNz4QEUEBs-75" value="+ virtual Deposit(int amount)" style="text;align=left;verticalAlign=top;spacingLeft=4;spacingRight=4;overflow=hidden;rotatable=0;points=[[0,0.5],[1,0.5]];portConstraint=eastwest;rounded=0;shadow=0;html=0;" vertex="1" parent="VebKBcN3mnJs3e3qyf47-9">
          <mxGeometry y="256" width="290" height="26" as="geometry" />
        </mxCell>
        <mxCell id="VebKBcN3mnJs3e3qyf47-14" value="&lt;&lt;interface&gt;&gt;&#xa;IDeposit" style="swimlane;fontStyle=0;align=center;verticalAlign=top;childLayout=stackLayout;horizontal=1;startSize=40;horizontalStack=0;resizeParent=1;resizeLast=0;collapsible=1;marginBottom=0;rounded=0;shadow=0;strokeWidth=1;" parent="VebKBcN3mnJs3e3qyf47-1" vertex="1">
          <mxGeometry x="780" y="60" width="160" height="180" as="geometry">
            <mxRectangle x="230" y="140" width="160" height="26" as="alternateBounds" />
          </mxGeometry>
        </mxCell>
        <mxCell id="VebKBcN3mnJs3e3qyf47-15" value="" style="line;html=1;strokeWidth=1;align=left;verticalAlign=middle;spacingTop=-1;spacingLeft=3;spacingRight=3;rotatable=0;labelPosition=right;points=[];portConstraint=eastwest;" parent="VebKBcN3mnJs3e3qyf47-14" vertex="1">
          <mxGeometry y="40" width="160" height="8" as="geometry" />
        </mxCell>
        <mxCell id="b7ZgIeELEThNz4QEUEBs-77" value="Deposit(int amount)" style="text;strokeColor=none;fillColor=none;align=left;verticalAlign=middle;spacingLeft=4;spacingRight=4;overflow=hidden;points=[[0,0.5],[1,0.5]];portConstraint=eastwest;rotatable=0;whiteSpace=wrap;html=1;" vertex="1" parent="VebKBcN3mnJs3e3qyf47-14">
          <mxGeometry y="48" width="160" height="30" as="geometry" />
        </mxCell>
        <mxCell id="VebKBcN3mnJs3e3qyf47-16" value="&lt;&lt;interface&gt;&gt;&#xa;IWithdraw" style="swimlane;fontStyle=0;align=center;verticalAlign=top;childLayout=stackLayout;horizontal=1;startSize=40;horizontalStack=0;resizeParent=1;resizeLast=0;collapsible=1;marginBottom=0;rounded=0;shadow=0;strokeWidth=1;" parent="VebKBcN3mnJs3e3qyf47-1" vertex="1">
          <mxGeometry x="1030" y="216" width="160" height="180" as="geometry">
            <mxRectangle x="230" y="140" width="160" height="26" as="alternateBounds" />
          </mxGeometry>
        </mxCell>
        <mxCell id="VebKBcN3mnJs3e3qyf47-17" value="" style="line;html=1;strokeWidth=1;align=left;verticalAlign=middle;spacingTop=-1;spacingLeft=3;spacingRight=3;rotatable=0;labelPosition=right;points=[];portConstraint=eastwest;" parent="VebKBcN3mnJs3e3qyf47-16" vertex="1">
          <mxGeometry y="40" width="160" height="8" as="geometry" />
        </mxCell>
        <mxCell id="b7ZgIeELEThNz4QEUEBs-78" value="Withdraw(int amount)" style="text;strokeColor=none;fillColor=none;align=left;verticalAlign=middle;spacingLeft=4;spacingRight=4;overflow=hidden;points=[[0,0.5],[1,0.5]];portConstraint=eastwest;rotatable=0;whiteSpace=wrap;html=1;" vertex="1" parent="VebKBcN3mnJs3e3qyf47-16">
          <mxGeometry y="48" width="160" height="30" as="geometry" />
        </mxCell>
        <mxCell id="VebKBcN3mnJs3e3qyf47-18" value="&lt;&lt;interface&gt;&gt;&#xa;IPay" style="swimlane;fontStyle=0;align=center;verticalAlign=top;childLayout=stackLayout;horizontal=1;startSize=40;horizontalStack=0;resizeParent=1;resizeLast=0;collapsible=1;marginBottom=0;rounded=0;shadow=0;strokeWidth=1;" parent="VebKBcN3mnJs3e3qyf47-1" vertex="1">
          <mxGeometry x="810" y="396" width="160" height="90" as="geometry">
            <mxRectangle x="230" y="140" width="160" height="26" as="alternateBounds" />
          </mxGeometry>
        </mxCell>
        <mxCell id="VebKBcN3mnJs3e3qyf47-19" value="Pay(int amount)" style="text;strokeColor=none;fillColor=none;align=left;verticalAlign=middle;spacingLeft=4;spacingRight=4;overflow=hidden;points=[[0,0.5],[1,0.5]];portConstraint=eastwest;rotatable=0;whiteSpace=wrap;html=1;" parent="VebKBcN3mnJs3e3qyf47-18" vertex="1">
          <mxGeometry y="40" width="160" height="30" as="geometry" />
        </mxCell>
        <mxCell id="VebKBcN3mnJs3e3qyf47-20" value="" style="line;html=1;strokeWidth=1;align=left;verticalAlign=middle;spacingTop=-1;spacingLeft=3;spacingRight=3;rotatable=0;labelPosition=right;points=[];portConstraint=eastwest;" parent="VebKBcN3mnJs3e3qyf47-18" vertex="1">
          <mxGeometry y="70" width="160" height="8" as="geometry" />
        </mxCell>
        <mxCell id="b7ZgIeELEThNz4QEUEBs-49" style="edgeStyle=orthogonalEdgeStyle;rounded=0;orthogonalLoop=1;jettySize=auto;html=1;entryX=0.25;entryY=1;entryDx=0;entryDy=0;endArrow=none;endFill=0;startArrow=block;startFill=0;dashed=1;" edge="1" parent="VebKBcN3mnJs3e3qyf47-1" source="VebKBcN3mnJs3e3qyf47-21" target="VebKBcN3mnJs3e3qyf47-37">
          <mxGeometry relative="1" as="geometry" />
        </mxCell>
        <mxCell id="b7ZgIeELEThNz4QEUEBs-50" value="Implements" style="edgeLabel;html=1;align=center;verticalAlign=middle;resizable=0;points=[];" connectable="0" vertex="1" parent="b7ZgIeELEThNz4QEUEBs-49">
          <mxGeometry x="-0.249" y="1" relative="1" as="geometry">
            <mxPoint as="offset" />
          </mxGeometry>
        </mxCell>
        <mxCell id="VebKBcN3mnJs3e3qyf47-21" value="&lt;&lt;interface&gt;&gt;&#xa;IMontlySpending" style="swimlane;fontStyle=0;align=center;verticalAlign=top;childLayout=stackLayout;horizontal=1;startSize=40;horizontalStack=0;resizeParent=1;resizeLast=0;collapsible=1;marginBottom=0;rounded=0;shadow=0;strokeWidth=1;" parent="VebKBcN3mnJs3e3qyf47-1" vertex="1">
          <mxGeometry x="80" y="1400" width="180" height="180" as="geometry">
            <mxRectangle x="230" y="140" width="160" height="26" as="alternateBounds" />
          </mxGeometry>
        </mxCell>
        <mxCell id="b7ZgIeELEThNz4QEUEBs-48" value="long limit {get; protected set;}" style="text;strokeColor=none;fillColor=none;align=left;verticalAlign=middle;spacingLeft=4;spacingRight=4;overflow=hidden;points=[[0,0.5],[1,0.5]];portConstraint=eastwest;rotatable=0;whiteSpace=wrap;html=1;" vertex="1" parent="VebKBcN3mnJs3e3qyf47-21">
          <mxGeometry y="40" width="180" height="30" as="geometry" />
        </mxCell>
        <mxCell id="VebKBcN3mnJs3e3qyf47-22" value="" style="line;html=1;strokeWidth=1;align=left;verticalAlign=middle;spacingTop=-1;spacingLeft=3;spacingRight=3;rotatable=0;labelPosition=right;points=[];portConstraint=eastwest;" parent="VebKBcN3mnJs3e3qyf47-21" vertex="1">
          <mxGeometry y="70" width="180" height="8" as="geometry" />
        </mxCell>
        <mxCell id="b7ZgIeELEThNz4QEUEBs-21" style="edgeStyle=orthogonalEdgeStyle;rounded=0;orthogonalLoop=1;jettySize=auto;html=1;entryX=0.25;entryY=1;entryDx=0;entryDy=0;exitX=0.5;exitY=0;exitDx=0;exitDy=0;endArrow=block;endFill=0;" edge="1" parent="VebKBcN3mnJs3e3qyf47-1" source="VebKBcN3mnJs3e3qyf47-23" target="VebKBcN3mnJs3e3qyf47-9">
          <mxGeometry relative="1" as="geometry">
            <Array as="points">
              <mxPoint x="-60" y="550" />
              <mxPoint x="365" y="550" />
            </Array>
          </mxGeometry>
        </mxCell>
        <mxCell id="VebKBcN3mnJs3e3qyf47-23" value="Mastercard" style="swimlane;fontStyle=0;align=center;verticalAlign=top;childLayout=stackLayout;horizontal=1;startSize=30;horizontalStack=0;resizeParent=1;resizeLast=0;collapsible=1;marginBottom=0;rounded=0;shadow=0;strokeWidth=1;" parent="VebKBcN3mnJs3e3qyf47-1" vertex="1">
          <mxGeometry x="-300" y="684" width="220" height="176" as="geometry">
            <mxRectangle x="230" y="140" width="160" height="26" as="alternateBounds" />
          </mxGeometry>
        </mxCell>
        <mxCell id="b7ZgIeELEThNz4QEUEBs-55" value="+ long limit" style="text;strokeColor=none;fillColor=none;align=left;verticalAlign=middle;spacingLeft=4;spacingRight=4;overflow=hidden;points=[[0,0.5],[1,0.5]];portConstraint=eastwest;rotatable=0;whiteSpace=wrap;html=1;" vertex="1" parent="VebKBcN3mnJs3e3qyf47-23">
          <mxGeometry y="30" width="220" height="30" as="geometry" />
        </mxCell>
        <mxCell id="VebKBcN3mnJs3e3qyf47-24" value="+ long Credit" style="text;strokeColor=none;fillColor=none;align=left;verticalAlign=middle;spacingLeft=4;spacingRight=4;overflow=hidden;points=[[0,0.5],[1,0.5]];portConstraint=eastwest;rotatable=0;whiteSpace=wrap;html=1;" parent="VebKBcN3mnJs3e3qyf47-23" vertex="1">
          <mxGeometry y="60" width="220" height="30" as="geometry" />
        </mxCell>
        <mxCell id="b7ZgIeELEThNz4QEUEBs-70" value="&lt;u style=&quot;&quot;&gt;private string[5] _prefixes&amp;nbsp;&lt;/u&gt;" style="text;strokeColor=none;fillColor=none;align=left;verticalAlign=middle;spacingLeft=4;spacingRight=4;overflow=hidden;points=[[0,0.5],[1,0.5]];portConstraint=eastwest;rotatable=0;whiteSpace=wrap;html=1;" vertex="1" parent="VebKBcN3mnJs3e3qyf47-23">
          <mxGeometry y="90" width="220" height="30" as="geometry" />
        </mxCell>
        <mxCell id="VebKBcN3mnJs3e3qyf47-25" value="" style="line;html=1;strokeWidth=1;align=left;verticalAlign=middle;spacingTop=-1;spacingLeft=3;spacingRight=3;rotatable=0;labelPosition=right;points=[];portConstraint=eastwest;" parent="VebKBcN3mnJs3e3qyf47-23" vertex="1">
          <mxGeometry y="120" width="220" height="8" as="geometry" />
        </mxCell>
        <mxCell id="VebKBcN3mnJs3e3qyf47-27" value="override Pay(int amount)" style="text;align=left;verticalAlign=top;spacingLeft=4;spacingRight=4;overflow=hidden;rotatable=0;points=[[0,0.5],[1,0.5]];portConstraint=eastwest;rounded=0;shadow=0;html=0;" parent="VebKBcN3mnJs3e3qyf47-23" vertex="1">
          <mxGeometry y="128" width="220" height="26" as="geometry" />
        </mxCell>
        <mxCell id="b7ZgIeELEThNz4QEUEBs-19" style="edgeStyle=orthogonalEdgeStyle;rounded=0;orthogonalLoop=1;jettySize=auto;html=1;entryX=0.5;entryY=1;entryDx=0;entryDy=0;endArrow=block;endFill=0;" edge="1" parent="VebKBcN3mnJs3e3qyf47-1" source="VebKBcN3mnJs3e3qyf47-37" target="b7ZgIeELEThNz4QEUEBs-13">
          <mxGeometry relative="1" as="geometry" />
        </mxCell>
        <mxCell id="VebKBcN3mnJs3e3qyf47-37" value="VisaElectron" style="swimlane;fontStyle=0;align=center;verticalAlign=top;childLayout=stackLayout;horizontal=1;startSize=30;horizontalStack=0;resizeParent=1;resizeLast=0;collapsible=1;marginBottom=0;rounded=0;shadow=0;strokeWidth=1;" parent="VebKBcN3mnJs3e3qyf47-1" vertex="1">
          <mxGeometry x="387" y="1010" width="450" height="146" as="geometry">
            <mxRectangle x="230" y="140" width="160" height="26" as="alternateBounds" />
          </mxGeometry>
        </mxCell>
        <mxCell id="b7ZgIeELEThNz4QEUEBs-68" value="&lt;u style=&quot;&quot;&gt;private string[6] _prefixes&amp;nbsp;&lt;/u&gt;" style="text;strokeColor=none;fillColor=none;align=left;verticalAlign=middle;spacingLeft=4;spacingRight=4;overflow=hidden;points=[[0,0.5],[1,0.5]];portConstraint=eastwest;rotatable=0;whiteSpace=wrap;html=1;" vertex="1" parent="VebKBcN3mnJs3e3qyf47-37">
          <mxGeometry y="30" width="450" height="30" as="geometry" />
        </mxCell>
        <mxCell id="VebKBcN3mnJs3e3qyf47-38" value="" style="line;html=1;strokeWidth=1;align=left;verticalAlign=middle;spacingTop=-1;spacingLeft=3;spacingRight=3;rotatable=0;labelPosition=right;points=[];portConstraint=eastwest;" parent="VebKBcN3mnJs3e3qyf47-37" vertex="1">
          <mxGeometry y="60" width="450" height="8" as="geometry" />
        </mxCell>
        <mxCell id="b7ZgIeELEThNz4QEUEBs-23" value="VisaElectron(string name, string accountNumber, int age, string[] prefixes)" style="text;align=left;verticalAlign=top;spacingLeft=4;spacingRight=4;overflow=hidden;rotatable=0;points=[[0,0.5],[1,0.5]];portConstraint=eastwest;rounded=0;shadow=0;html=0;" vertex="1" parent="VebKBcN3mnJs3e3qyf47-37">
          <mxGeometry y="68" width="450" height="26" as="geometry" />
        </mxCell>
        <mxCell id="b7ZgIeELEThNz4QEUEBs-22" style="edgeStyle=orthogonalEdgeStyle;rounded=0;orthogonalLoop=1;jettySize=auto;html=1;endArrow=block;endFill=0;" edge="1" parent="VebKBcN3mnJs3e3qyf47-1" source="b7ZgIeELEThNz4QEUEBs-2">
          <mxGeometry relative="1" as="geometry">
            <mxPoint x="430" y="512" as="targetPoint" />
            <Array as="points">
              <mxPoint x="200" y="620" />
              <mxPoint x="440" y="620" />
              <mxPoint x="440" y="570" />
              <mxPoint x="430" y="570" />
            </Array>
          </mxGeometry>
        </mxCell>
        <mxCell id="b7ZgIeELEThNz4QEUEBs-51" style="edgeStyle=orthogonalEdgeStyle;rounded=0;orthogonalLoop=1;jettySize=auto;html=1;endArrow=block;endFill=0;dashed=1;" edge="1" parent="VebKBcN3mnJs3e3qyf47-1" source="b7ZgIeELEThNz4QEUEBs-2" target="VebKBcN3mnJs3e3qyf47-21">
          <mxGeometry relative="1" as="geometry">
            <Array as="points">
              <mxPoint x="350" y="903" />
              <mxPoint x="350" y="1420" />
            </Array>
          </mxGeometry>
        </mxCell>
        <mxCell id="b7ZgIeELEThNz4QEUEBs-52" value="Implements" style="edgeLabel;html=1;align=center;verticalAlign=middle;resizable=0;points=[];" connectable="0" vertex="1" parent="b7ZgIeELEThNz4QEUEBs-51">
          <mxGeometry x="0.4216" y="-2" relative="1" as="geometry">
            <mxPoint as="offset" />
          </mxGeometry>
        </mxCell>
        <mxCell id="b7ZgIeELEThNz4QEUEBs-2" value="Visa" style="swimlane;fontStyle=0;align=center;verticalAlign=top;childLayout=stackLayout;horizontal=1;startSize=30;horizontalStack=0;resizeParent=1;resizeLast=0;collapsible=1;marginBottom=0;rounded=0;shadow=0;strokeWidth=1;" vertex="1" parent="VebKBcN3mnJs3e3qyf47-1">
          <mxGeometry x="120" y="840" width="220" height="176" as="geometry">
            <mxRectangle x="230" y="140" width="160" height="26" as="alternateBounds" />
          </mxGeometry>
        </mxCell>
        <mxCell id="b7ZgIeELEThNz4QEUEBs-3" value="+ long limit" style="text;strokeColor=none;fillColor=none;align=left;verticalAlign=middle;spacingLeft=4;spacingRight=4;overflow=hidden;points=[[0,0.5],[1,0.5]];portConstraint=eastwest;rotatable=0;whiteSpace=wrap;html=1;" vertex="1" parent="b7ZgIeELEThNz4QEUEBs-2">
          <mxGeometry y="30" width="220" height="30" as="geometry" />
        </mxCell>
        <mxCell id="b7ZgIeELEThNz4QEUEBs-69" value="&lt;u style=&quot;&quot;&gt;private string[1] _prefixes&amp;nbsp;&lt;/u&gt;" style="text;strokeColor=none;fillColor=none;align=left;verticalAlign=middle;spacingLeft=4;spacingRight=4;overflow=hidden;points=[[0,0.5],[1,0.5]];portConstraint=eastwest;rotatable=0;whiteSpace=wrap;html=1;" vertex="1" parent="b7ZgIeELEThNz4QEUEBs-2">
          <mxGeometry y="60" width="220" height="30" as="geometry" />
        </mxCell>
        <mxCell id="b7ZgIeELEThNz4QEUEBs-56" value="+ long Credit" style="text;strokeColor=none;fillColor=none;align=left;verticalAlign=middle;spacingLeft=4;spacingRight=4;overflow=hidden;points=[[0,0.5],[1,0.5]];portConstraint=eastwest;rotatable=0;whiteSpace=wrap;html=1;" vertex="1" parent="b7ZgIeELEThNz4QEUEBs-2">
          <mxGeometry y="90" width="220" height="30" as="geometry" />
        </mxCell>
        <mxCell id="b7ZgIeELEThNz4QEUEBs-4" value="" style="line;html=1;strokeWidth=1;align=left;verticalAlign=middle;spacingTop=-1;spacingLeft=3;spacingRight=3;rotatable=0;labelPosition=right;points=[];portConstraint=eastwest;" vertex="1" parent="b7ZgIeELEThNz4QEUEBs-2">
          <mxGeometry y="120" width="220" height="8" as="geometry" />
        </mxCell>
        <mxCell id="b7ZgIeELEThNz4QEUEBs-6" value="override Pay(int amount)" style="text;align=left;verticalAlign=top;spacingLeft=4;spacingRight=4;overflow=hidden;rotatable=0;points=[[0,0.5],[1,0.5]];portConstraint=eastwest;rounded=0;shadow=0;html=0;" vertex="1" parent="b7ZgIeELEThNz4QEUEBs-2">
          <mxGeometry y="128" width="220" height="26" as="geometry" />
        </mxCell>
        <mxCell id="b7ZgIeELEThNz4QEUEBs-18" style="edgeStyle=orthogonalEdgeStyle;rounded=0;orthogonalLoop=1;jettySize=auto;html=1;entryX=0.878;entryY=1.052;entryDx=0;entryDy=0;entryPerimeter=0;endArrow=block;endFill=0;" edge="1" parent="VebKBcN3mnJs3e3qyf47-1" source="b7ZgIeELEThNz4QEUEBs-8" target="b7ZgIeELEThNz4QEUEBs-57">
          <mxGeometry relative="1" as="geometry">
            <Array as="points">
              <mxPoint x="1100" y="900" />
              <mxPoint x="940" y="900" />
            </Array>
          </mxGeometry>
        </mxCell>
        <mxCell id="b7ZgIeELEThNz4QEUEBs-8" value="Maestro" style="swimlane;fontStyle=0;align=center;verticalAlign=top;childLayout=stackLayout;horizontal=1;startSize=30;horizontalStack=0;resizeParent=1;resizeLast=0;collapsible=1;marginBottom=0;rounded=0;shadow=0;strokeWidth=1;" vertex="1" parent="VebKBcN3mnJs3e3qyf47-1">
          <mxGeometry x="990" y="1010" width="330" height="146" as="geometry">
            <mxRectangle x="230" y="140" width="160" height="26" as="alternateBounds" />
          </mxGeometry>
        </mxCell>
        <mxCell id="b7ZgIeELEThNz4QEUEBs-67" value="&lt;u style=&quot;&quot;&gt;private string[9] _prefixes&amp;nbsp;&lt;/u&gt;" style="text;strokeColor=none;fillColor=none;align=left;verticalAlign=middle;spacingLeft=4;spacingRight=4;overflow=hidden;points=[[0,0.5],[1,0.5]];portConstraint=eastwest;rotatable=0;whiteSpace=wrap;html=1;" vertex="1" parent="b7ZgIeELEThNz4QEUEBs-8">
          <mxGeometry y="30" width="330" height="30" as="geometry" />
        </mxCell>
        <mxCell id="b7ZgIeELEThNz4QEUEBs-9" value="" style="line;html=1;strokeWidth=1;align=left;verticalAlign=middle;spacingTop=-1;spacingLeft=3;spacingRight=3;rotatable=0;labelPosition=right;points=[];portConstraint=eastwest;" vertex="1" parent="b7ZgIeELEThNz4QEUEBs-8">
          <mxGeometry y="60" width="330" height="8" as="geometry" />
        </mxCell>
        <mxCell id="b7ZgIeELEThNz4QEUEBs-66" value="+ override string CreateCardNumber(string[] prefixes)" style="text;strokeColor=none;fillColor=none;align=left;verticalAlign=middle;spacingLeft=4;spacingRight=4;overflow=hidden;points=[[0,0.5],[1,0.5]];portConstraint=eastwest;rotatable=0;whiteSpace=wrap;html=1;" vertex="1" parent="b7ZgIeELEThNz4QEUEBs-8">
          <mxGeometry y="68" width="330" height="30" as="geometry" />
        </mxCell>
        <mxCell id="b7ZgIeELEThNz4QEUEBs-76" style="edgeStyle=orthogonalEdgeStyle;rounded=0;orthogonalLoop=1;jettySize=auto;html=1;entryX=0.723;entryY=1.145;entryDx=0;entryDy=0;entryPerimeter=0;endArrow=block;endFill=0;" edge="1" parent="VebKBcN3mnJs3e3qyf47-1" source="b7ZgIeELEThNz4QEUEBs-13" target="b7ZgIeELEThNz4QEUEBs-75">
          <mxGeometry relative="1" as="geometry">
            <Array as="points">
              <mxPoint x="785" y="580" />
              <mxPoint x="520" y="580" />
            </Array>
          </mxGeometry>
        </mxCell>
        <mxCell id="b7ZgIeELEThNz4QEUEBs-13" value="DebitCard" style="swimlane;fontStyle=0;align=center;verticalAlign=top;childLayout=stackLayout;horizontal=1;startSize=30;horizontalStack=0;resizeParent=1;resizeLast=0;collapsible=1;marginBottom=0;rounded=0;shadow=0;strokeWidth=1;" vertex="1" parent="VebKBcN3mnJs3e3qyf47-1">
          <mxGeometry x="580" y="640" width="410" height="150" as="geometry">
            <mxRectangle x="230" y="140" width="160" height="26" as="alternateBounds" />
          </mxGeometry>
        </mxCell>
        <mxCell id="b7ZgIeELEThNz4QEUEBs-71" value="&lt;u style=&quot;&quot;&gt;private string[1] _prefixes&amp;nbsp;&lt;/u&gt;" style="text;strokeColor=none;fillColor=none;align=left;verticalAlign=middle;spacingLeft=4;spacingRight=4;overflow=hidden;points=[[0,0.5],[1,0.5]];portConstraint=eastwest;rotatable=0;whiteSpace=wrap;html=1;" vertex="1" parent="b7ZgIeELEThNz4QEUEBs-13">
          <mxGeometry y="30" width="410" height="30" as="geometry" />
        </mxCell>
        <mxCell id="b7ZgIeELEThNz4QEUEBs-14" value="" style="line;html=1;strokeWidth=1;align=left;verticalAlign=middle;spacingTop=-1;spacingLeft=3;spacingRight=3;rotatable=0;labelPosition=right;points=[];portConstraint=eastwest;" vertex="1" parent="b7ZgIeELEThNz4QEUEBs-13">
          <mxGeometry y="60" width="410" height="30" as="geometry" />
        </mxCell>
        <mxCell id="b7ZgIeELEThNz4QEUEBs-58" value="DebitCard(string name, string accountNumber)" style="text;strokeColor=none;fillColor=none;align=left;verticalAlign=middle;spacingLeft=4;spacingRight=4;overflow=hidden;points=[[0,0.5],[1,0.5]];portConstraint=eastwest;rotatable=0;whiteSpace=wrap;html=1;" vertex="1" parent="b7ZgIeELEThNz4QEUEBs-13">
          <mxGeometry y="90" width="410" height="30" as="geometry" />
        </mxCell>
        <mxCell id="b7ZgIeELEThNz4QEUEBs-57" value="DebitCard(string name, string accountNumber, int age, string[] prefixes)" style="text;strokeColor=none;fillColor=none;align=left;verticalAlign=middle;spacingLeft=4;spacingRight=4;overflow=hidden;points=[[0,0.5],[1,0.5]];portConstraint=eastwest;rotatable=0;whiteSpace=wrap;html=1;" vertex="1" parent="b7ZgIeELEThNz4QEUEBs-13">
          <mxGeometry y="120" width="410" height="30" as="geometry" />
        </mxCell>
        <mxCell id="b7ZgIeELEThNz4QEUEBs-27" style="edgeStyle=orthogonalEdgeStyle;rounded=0;orthogonalLoop=1;jettySize=auto;html=1;entryX=0;entryY=0.5;entryDx=0;entryDy=0;endArrow=none;endFill=0;startArrow=block;startFill=0;exitX=0;exitY=0.5;exitDx=0;exitDy=0;dashed=1;" edge="1" parent="VebKBcN3mnJs3e3qyf47-1" target="VebKBcN3mnJs3e3qyf47-24">
          <mxGeometry relative="1" as="geometry">
            <mxPoint x="-340" y="1485" as="sourcePoint" />
            <Array as="points">
              <mxPoint x="-380" y="1485" />
              <mxPoint x="-380" y="759" />
            </Array>
          </mxGeometry>
        </mxCell>
        <mxCell id="b7ZgIeELEThNz4QEUEBs-28" value="Implements" style="edgeLabel;html=1;align=center;verticalAlign=middle;resizable=0;points=[];" connectable="0" vertex="1" parent="b7ZgIeELEThNz4QEUEBs-27">
          <mxGeometry x="-0.4851" y="4" relative="1" as="geometry">
            <mxPoint as="offset" />
          </mxGeometry>
        </mxCell>
        <mxCell id="b7ZgIeELEThNz4QEUEBs-24" value="&lt;&lt;interface&gt;&gt;&#xa;ICredit" style="swimlane;fontStyle=0;align=center;verticalAlign=top;childLayout=stackLayout;horizontal=1;startSize=40;horizontalStack=0;resizeParent=1;resizeLast=0;collapsible=1;marginBottom=0;rounded=0;shadow=0;strokeWidth=1;" vertex="1" parent="VebKBcN3mnJs3e3qyf47-1">
          <mxGeometry x="-340" y="1400" width="160" height="180" as="geometry">
            <mxRectangle x="230" y="140" width="160" height="26" as="alternateBounds" />
          </mxGeometry>
        </mxCell>
        <mxCell id="b7ZgIeELEThNz4QEUEBs-29" value="+ long Credit" style="text;strokeColor=none;fillColor=none;align=left;verticalAlign=middle;spacingLeft=4;spacingRight=4;overflow=hidden;points=[[0,0.5],[1,0.5]];portConstraint=eastwest;rotatable=0;whiteSpace=wrap;html=1;" vertex="1" parent="b7ZgIeELEThNz4QEUEBs-24">
          <mxGeometry y="40" width="160" height="30" as="geometry" />
        </mxCell>
        <mxCell id="b7ZgIeELEThNz4QEUEBs-25" value="" style="line;html=1;strokeWidth=1;align=left;verticalAlign=middle;spacingTop=-1;spacingLeft=3;spacingRight=3;rotatable=0;labelPosition=right;points=[];portConstraint=eastwest;" vertex="1" parent="b7ZgIeELEThNz4QEUEBs-24">
          <mxGeometry y="70" width="160" height="8" as="geometry" />
        </mxCell>
        <mxCell id="b7ZgIeELEThNz4QEUEBs-31" style="edgeStyle=orthogonalEdgeStyle;rounded=0;orthogonalLoop=1;jettySize=auto;html=1;exitX=0;exitY=0.5;exitDx=0;exitDy=0;entryX=0.5;entryY=0;entryDx=0;entryDy=0;endArrow=block;endFill=0;dashed=1;" edge="1" parent="VebKBcN3mnJs3e3qyf47-1" source="b7ZgIeELEThNz4QEUEBs-3" target="b7ZgIeELEThNz4QEUEBs-24">
          <mxGeometry relative="1" as="geometry" />
        </mxCell>
        <mxCell id="b7ZgIeELEThNz4QEUEBs-33" value="Implements" style="edgeLabel;html=1;align=center;verticalAlign=middle;resizable=0;points=[];" connectable="0" vertex="1" parent="b7ZgIeELEThNz4QEUEBs-31">
          <mxGeometry x="0.4917" y="2" relative="1" as="geometry">
            <mxPoint as="offset" />
          </mxGeometry>
        </mxCell>
        <mxCell id="b7ZgIeELEThNz4QEUEBs-34" style="edgeStyle=orthogonalEdgeStyle;rounded=0;orthogonalLoop=1;jettySize=auto;html=1;exitX=1;exitY=0.5;exitDx=0;exitDy=0;entryX=-0.006;entryY=0.106;entryDx=0;entryDy=0;entryPerimeter=0;dashed=1;endArrow=block;endFill=0;" edge="1" parent="VebKBcN3mnJs3e3qyf47-1" source="VebKBcN3mnJs3e3qyf47-10" target="VebKBcN3mnJs3e3qyf47-14">
          <mxGeometry relative="1" as="geometry" />
        </mxCell>
        <mxCell id="b7ZgIeELEThNz4QEUEBs-35" value="Implements" style="edgeLabel;html=1;align=center;verticalAlign=middle;resizable=0;points=[];" connectable="0" vertex="1" parent="b7ZgIeELEThNz4QEUEBs-34">
          <mxGeometry x="0.5624" y="-3" relative="1" as="geometry">
            <mxPoint as="offset" />
          </mxGeometry>
        </mxCell>
        <mxCell id="b7ZgIeELEThNz4QEUEBs-36" style="edgeStyle=orthogonalEdgeStyle;rounded=0;orthogonalLoop=1;jettySize=auto;html=1;exitX=1;exitY=0.5;exitDx=0;exitDy=0;dashed=1;endArrow=block;endFill=0;" edge="1" parent="VebKBcN3mnJs3e3qyf47-1" source="VebKBcN3mnJs3e3qyf47-11" target="VebKBcN3mnJs3e3qyf47-16">
          <mxGeometry relative="1" as="geometry" />
        </mxCell>
        <mxCell id="b7ZgIeELEThNz4QEUEBs-37" value="Implements" style="edgeLabel;html=1;align=center;verticalAlign=middle;resizable=0;points=[];" connectable="0" vertex="1" parent="b7ZgIeELEThNz4QEUEBs-36">
          <mxGeometry x="0.2471" y="-2" relative="1" as="geometry">
            <mxPoint as="offset" />
          </mxGeometry>
        </mxCell>
        <mxCell id="b7ZgIeELEThNz4QEUEBs-39" style="edgeStyle=orthogonalEdgeStyle;rounded=0;orthogonalLoop=1;jettySize=auto;html=1;entryX=0;entryY=0.5;entryDx=0;entryDy=0;dashed=1;endArrow=block;endFill=0;" edge="1" parent="VebKBcN3mnJs3e3qyf47-1" source="VebKBcN3mnJs3e3qyf47-13" target="VebKBcN3mnJs3e3qyf47-19">
          <mxGeometry relative="1" as="geometry" />
        </mxCell>
        <mxCell id="b7ZgIeELEThNz4QEUEBs-40" value="Implements" style="edgeLabel;html=1;align=center;verticalAlign=middle;resizable=0;points=[];" connectable="0" vertex="1" parent="b7ZgIeELEThNz4QEUEBs-39">
          <mxGeometry x="0.48" y="-1" relative="1" as="geometry">
            <mxPoint as="offset" />
          </mxGeometry>
        </mxCell>
        <mxCell id="b7ZgIeELEThNz4QEUEBs-53" style="edgeStyle=orthogonalEdgeStyle;rounded=0;orthogonalLoop=1;jettySize=auto;html=1;endArrow=open;endFill=0;entryX=0.063;entryY=0;entryDx=0;entryDy=0;entryPerimeter=0;" edge="1" parent="VebKBcN3mnJs3e3qyf47-1" source="VebKBcN3mnJs3e3qyf47-23" target="VebKBcN3mnJs3e3qyf47-21">
          <mxGeometry relative="1" as="geometry">
            <mxPoint x="10" y="1360" as="targetPoint" />
            <Array as="points">
              <mxPoint x="90" y="765" />
              <mxPoint x="90" y="1400" />
            </Array>
          </mxGeometry>
        </mxCell>
        <mxCell id="b7ZgIeELEThNz4QEUEBs-54" value="Implements" style="edgeLabel;html=1;align=center;verticalAlign=middle;resizable=0;points=[];" connectable="0" vertex="1" parent="b7ZgIeELEThNz4QEUEBs-53">
          <mxGeometry x="-0.0092" y="3" relative="1" as="geometry">
            <mxPoint as="offset" />
          </mxGeometry>
        </mxCell>
        <mxCell id="b7ZgIeELEThNz4QEUEBs-59" value="Account" style="swimlane;fontStyle=0;align=center;verticalAlign=top;childLayout=stackLayout;horizontal=1;startSize=30;horizontalStack=0;resizeParent=1;resizeLast=0;collapsible=1;marginBottom=0;rounded=0;shadow=0;strokeWidth=1;" vertex="1" parent="VebKBcN3mnJs3e3qyf47-1">
          <mxGeometry x="-130" y="340" width="220" height="138" as="geometry">
            <mxRectangle x="230" y="140" width="160" height="26" as="alternateBounds" />
          </mxGeometry>
        </mxCell>
        <mxCell id="b7ZgIeELEThNz4QEUEBs-60" value="+ string Name {+get - set}" style="text;align=left;verticalAlign=top;spacingLeft=4;spacingRight=4;overflow=hidden;rotatable=0;points=[[0,0.5],[1,0.5]];portConstraint=eastwest;" vertex="1" parent="b7ZgIeELEThNz4QEUEBs-59">
          <mxGeometry y="30" width="220" height="26" as="geometry" />
        </mxCell>
        <mxCell id="b7ZgIeELEThNz4QEUEBs-61" value="+ string AccountNumber {+get -set}" style="text;align=left;verticalAlign=top;spacingLeft=4;spacingRight=4;overflow=hidden;rotatable=0;points=[[0,0.5],[1,0.5]];portConstraint=eastwest;rounded=0;shadow=0;html=0;" vertex="1" parent="b7ZgIeELEThNz4QEUEBs-59">
          <mxGeometry y="56" width="220" height="26" as="geometry" />
        </mxCell>
        <mxCell id="b7ZgIeELEThNz4QEUEBs-62" value="" style="line;html=1;strokeWidth=1;align=left;verticalAlign=middle;spacingTop=-1;spacingLeft=3;spacingRight=3;rotatable=0;labelPosition=right;points=[];portConstraint=eastwest;" vertex="1" parent="b7ZgIeELEThNz4QEUEBs-59">
          <mxGeometry y="82" width="220" height="8" as="geometry" />
        </mxCell>
        <mxCell id="b7ZgIeELEThNz4QEUEBs-63" value="# Card(string name)" style="text;align=left;verticalAlign=top;spacingLeft=4;spacingRight=4;overflow=hidden;rotatable=0;points=[[0,0.5],[1,0.5]];portConstraint=eastwest;rounded=0;shadow=0;html=0;" vertex="1" parent="b7ZgIeELEThNz4QEUEBs-59">
          <mxGeometry y="90" width="220" height="26" as="geometry" />
        </mxCell>
        <mxCell id="b7ZgIeELEThNz4QEUEBs-64" style="edgeStyle=orthogonalEdgeStyle;rounded=0;orthogonalLoop=1;jettySize=auto;html=1;entryX=0;entryY=0.5;entryDx=0;entryDy=0;endArrow=none;endFill=0;startArrow=diamondThin;startFill=1;endSize=15;startSize=12;" edge="1" parent="VebKBcN3mnJs3e3qyf47-1" source="VebKBcN3mnJs3e3qyf47-4" target="b7ZgIeELEThNz4QEUEBs-61">
          <mxGeometry relative="1" as="geometry" />
        </mxCell>
        <mxCell id="b7ZgIeELEThNz4QEUEBs-65" style="edgeStyle=orthogonalEdgeStyle;rounded=0;orthogonalLoop=1;jettySize=auto;html=1;exitX=1;exitY=0.5;exitDx=0;exitDy=0;entryX=0;entryY=0.25;entryDx=0;entryDy=0;endArrow=none;endFill=0;startArrow=diamondThin;startFill=1;" edge="1" parent="VebKBcN3mnJs3e3qyf47-1" source="VebKBcN3mnJs3e3qyf47-3" target="VebKBcN3mnJs3e3qyf47-9">
          <mxGeometry relative="1" as="geometry" />
        </mxCell>
      </root>
    </mxGraphModel>
  </diagram>
</mxfile>
